<?xml version="1.0" encoding="UTF-8"?>
<svg xmlns="http://www.w3.org/2000/svg" xmlns:xlink="http://www.w3.org/1999/xlink" width="2000" height="2000" viewBox="0 0 2000 2000">

<path fill-rule="evenodd" fill="rgb(95.701599%, 96.875%, 98.046875%)" fill-opacity="1" d="M 1908.238281 1915.15625 L 1889.179688 1915.15625 C 1888.300781 1915.15625 1887.589844 1915.871094 1887.589844 1916.746094 L 1887.589844 1935.800781 C 1887.589844 1936.679688 1888.300781 1937.394531 1889.179688 1937.394531 L 1908.238281 1937.394531 C 1909.109375 1937.394531 1909.828125 1936.679688 1909.828125 1935.800781 L 1909.828125 1916.746094 C 1909.828125 1915.871094 1909.109375 1915.15625 1908.238281 1915.15625 "/>
<path fill-rule="evenodd" fill="rgb(95.701599%, 96.875%, 98.046875%)" fill-opacity="1" d="M 1865.28125 1916.171875 L 1847.089844 1916.171875 C 1846.261719 1916.171875 1845.578125 1916.855469 1845.578125 1917.691406 L 1845.578125 1935.875 C 1845.578125 1936.710938 1846.261719 1937.394531 1847.089844 1937.394531 L 1865.28125 1937.394531 C 1866.109375 1937.394531 1866.800781 1936.710938 1866.800781 1935.875 L 1866.800781 1917.691406 C 1866.800781 1916.855469 1866.109375 1916.171875 1865.28125 1916.171875 "/>
<path fill-rule="evenodd" fill="rgb(95.701599%, 96.875%, 98.046875%)" fill-opacity="1" d="M 1822.320312 1917.1875 L 1805.011719 1917.1875 C 1804.210938 1917.1875 1803.558594 1917.839844 1803.558594 1918.636719 L 1803.558594 1935.949219 C 1803.558594 1936.742188 1804.210938 1937.394531 1805.011719 1937.394531 L 1822.320312 1937.394531 C 1823.121094 1937.394531 1823.769531 1936.742188 1823.769531 1935.949219 L 1823.769531 1918.636719 C 1823.769531 1917.839844 1823.121094 1917.1875 1822.320312 1917.1875 "/>
<path fill-rule="evenodd" fill="rgb(95.701599%, 96.875%, 98.046875%)" fill-opacity="1" d="M 1779.371094 1918.207031 L 1762.929688 1918.207031 C 1762.171875 1918.207031 1761.550781 1918.824219 1761.550781 1919.582031 L 1761.550781 1936.019531 C 1761.550781 1936.777344 1762.171875 1937.394531 1762.929688 1937.394531 L 1779.371094 1937.394531 C 1780.121094 1937.394531 1780.738281 1936.777344 1780.738281 1936.019531 L 1780.738281 1919.582031 C 1780.738281 1918.824219 1780.121094 1918.207031 1779.371094 1918.207031 "/>
<path fill-rule="evenodd" fill="rgb(95.701599%, 96.875%, 98.046875%)" fill-opacity="1" d="M 1736.410156 1919.222656 L 1720.839844 1919.222656 C 1720.128906 1919.222656 1719.539062 1919.808594 1719.539062 1920.523438 L 1719.539062 1936.09375 C 1719.539062 1936.808594 1720.128906 1937.394531 1720.839844 1937.394531 L 1736.410156 1937.394531 C 1737.128906 1937.394531 1737.710938 1936.808594 1737.710938 1936.09375 L 1737.710938 1920.523438 C 1737.710938 1919.808594 1737.128906 1919.222656 1736.410156 1919.222656 "/>
<path fill-rule="evenodd" fill="rgb(95.701599%, 96.875%, 98.046875%)" fill-opacity="1" d="M 1693.460938 1920.238281 L 1678.761719 1920.238281 C 1678.078125 1920.238281 1677.53125 1920.792969 1677.53125 1921.46875 L 1677.53125 1936.167969 C 1677.53125 1936.84375 1678.078125 1937.394531 1678.761719 1937.394531 L 1693.460938 1937.394531 C 1694.128906 1937.394531 1694.679688 1936.84375 1694.679688 1936.167969 L 1694.679688 1921.46875 C 1694.679688 1920.792969 1694.128906 1920.238281 1693.460938 1920.238281 "/>
<path fill-rule="evenodd" fill="rgb(95.701599%, 96.875%, 98.046875%)" fill-opacity="1" d="M 1650.5 1921.257812 L 1636.671875 1921.257812 C 1636.039062 1921.257812 1635.519531 1921.777344 1635.519531 1922.414062 L 1635.519531 1936.238281 C 1635.519531 1936.875 1636.039062 1937.394531 1636.671875 1937.394531 L 1650.5 1937.394531 C 1651.140625 1937.394531 1651.648438 1936.875 1651.648438 1936.238281 L 1651.648438 1922.414062 C 1651.648438 1921.777344 1651.140625 1921.257812 1650.5 1921.257812 "/>
<path fill-rule="evenodd" fill="rgb(95.701599%, 96.875%, 98.046875%)" fill-opacity="1" d="M 1607.539062 1922.273438 L 1594.589844 1922.273438 C 1593.988281 1922.273438 1593.511719 1922.761719 1593.511719 1923.355469 L 1593.511719 1936.3125 C 1593.511719 1936.90625 1593.988281 1937.394531 1594.589844 1937.394531 L 1607.539062 1937.394531 C 1608.140625 1937.394531 1608.628906 1936.90625 1608.628906 1936.3125 L 1608.628906 1923.355469 C 1608.628906 1922.761719 1608.140625 1922.273438 1607.539062 1922.273438 "/>
<path fill-rule="evenodd" fill="rgb(95.701599%, 96.875%, 98.046875%)" fill-opacity="1" d="M 1564.589844 1923.292969 L 1552.5 1923.292969 C 1551.949219 1923.292969 1551.488281 1923.746094 1551.488281 1924.300781 L 1551.488281 1936.386719 C 1551.488281 1936.941406 1551.949219 1937.394531 1552.5 1937.394531 L 1564.589844 1937.394531 C 1565.140625 1937.394531 1565.601562 1936.941406 1565.601562 1936.386719 L 1565.601562 1924.300781 C 1565.601562 1923.746094 1565.140625 1923.292969 1564.589844 1923.292969 "/>
<path fill-rule="evenodd" fill="rgb(51.367188%, 82.421875%, 72.851562%)" fill-opacity="1" d="M 563.347656 611.378906 L 1436.570312 611.378906 L 1436.570312 1635.890625 L 563.347656 1635.890625 L 563.347656 611.378906 "/>
<path fill-rule="nonzero" fill="rgb(78.125%, 98.046875%, 92.1875%)" fill-opacity="1" d="M 1331.570312 1562.890625 C 1343.71875 1562.890625 1353.570312 1572.742188 1353.570312 1584.890625 C 1353.570312 1597.042969 1343.71875 1606.890625 1331.570312 1606.890625 L 1249.359375 1606.890625 C 1237.210938 1606.890625 1227.359375 1597.042969 1227.359375 1584.890625 C 1227.359375 1572.742188 1237.210938 1562.890625 1249.359375 1562.890625 Z M 1152.890625 1562.890625 C 1165.039062 1562.890625 1174.890625 1572.742188 1174.890625 1584.890625 C 1174.890625 1597.042969 1165.039062 1606.890625 1152.890625 1606.890625 L 623.347656 1606.890625 C 611.195312 1606.890625 601.347656 1597.042969 601.347656 1584.890625 L 601.347656 716.378906 C 601.347656 704.230469 611.195312 694.378906 623.347656 694.378906 C 635.496094 694.378906 645.347656 704.230469 645.347656 716.378906 L 645.347656 1562.890625 L 1152.890625 1562.890625 "/>
<path fill-rule="evenodd" fill="rgb(43.920898%, 74.021912%, 63.867188%)" fill-opacity="1" d="M 563.347656 611.378906 L 1436.570312 611.378906 L 1436.570312 1635.890625 L 1394.570312 1635.890625 L 1394.570312 666.878906 L 563.347656 666.878906 L 563.347656 611.378906 "/>
<path fill-rule="evenodd" fill="rgb(66.601562%, 93.75%, 85.546875%)" fill-opacity="1" d="M 563.347656 611.378906 L 1261.398438 441.511719 L 1261.398438 611.378906 Z M 563.347656 611.378906 "/>
<path fill-rule="evenodd" fill="rgb(57.226562%, 89.84375%, 79.296875%)" fill-opacity="1" d="M 563.347656 611.378906 L 1261.398438 441.511719 L 1261.398438 611.378906 L 1219.398438 611.378906 L 1219.398438 497.011719 L 749.417969 611.378906 L 563.347656 611.378906 "/>
<path fill-rule="nonzero" fill="rgb(91.014099%, 62.304688%, 62.304688%)" fill-opacity="1" d="M 999.960938 982.628906 C 1028.160156 926.230469 1056.359375 898.03125 1112.761719 898.03125 C 1175.03125 898.03125 1225.570312 948.558594 1225.570312 1010.828125 C 1225.570312 1123.632812 1112.761719 1236.4375 999.960938 1349.242188 C 887.15625 1236.4375 774.351562 1123.632812 774.351562 1010.828125 C 774.351562 948.558594 824.890625 898.03125 887.15625 898.03125 C 943.558594 898.03125 971.757812 926.230469 999.960938 982.628906 "/>
<path fill-rule="nonzero" fill="rgb(87.109375%, 47.459412%, 47.851562%)" fill-opacity="1" d="M 999.960938 982.628906 C 1028.160156 926.230469 1056.359375 898.03125 1112.761719 898.03125 C 1175.03125 898.03125 1225.570312 948.558594 1225.570312 1010.828125 C 1225.570312 1123.632812 1112.761719 1236.4375 999.960938 1349.242188 C 887.15625 1236.4375 774.351562 1123.632812 774.351562 1010.828125 C 774.351562 948.558594 824.890625 898.03125 887.15625 898.03125 C 943.558594 898.03125 971.757812 926.230469 999.960938 982.628906 "/>
<path fill-rule="nonzero" fill="rgb(91.014099%, 62.304688%, 62.304688%)" fill-opacity="1" d="M 1223.261719 1039.050781 C 1206.738281 1142.449219 1103.359375 1245.84375 999.960938 1349.242188 C 896.5625 1245.84375 793.183594 1142.449219 776.65625 1039.050781 C 787.203125 987.691406 832.691406 949.03125 887.15625 949.03125 C 943.558594 949.03125 971.757812 977.230469 999.960938 1033.628906 C 1028.160156 977.230469 1056.359375 949.03125 1112.761719 949.03125 C 1167.230469 949.03125 1212.71875 987.691406 1223.261719 1039.050781 "/>
<path fill-rule="nonzero" fill="rgb(26.268005%, 26.268005%, 26.268005%)" fill-opacity="1" d="M 1209.46875 1087.554688 C 1174.410156 1174.78125 1087.191406 1262.011719 999.960938 1349.242188 C 912.730469 1262.011719 825.511719 1174.78125 790.449219 1087.554688 C 810.1875 1054.765625 846.121094 1032.816406 887.15625 1032.816406 C 943.558594 1032.816406 971.757812 1061.019531 999.960938 1117.421875 C 1028.160156 1061.019531 1056.359375 1032.816406 1112.761719 1032.816406 C 1153.800781 1032.816406 1189.730469 1054.765625 1209.46875 1087.554688 "/>
</svg>
